<?xml version="1.0" standalone="no"?>
<!DOCTYPE svg PUBLIC "-//W3C//DTD SVG 20010904//EN"
 "http://www.w3.org/TR/2001/REC-SVG-20010904/DTD/svg10.dtd">
<svg version="1.0" xmlns="http://www.w3.org/2000/svg"
 width="1000.000000pt" height="1000.000000pt" viewBox="0 0 1000.000000 1000.000000"
 preserveAspectRatio="xMidYMid meet">

<g transform="translate(0.000000,1000.000000) scale(0.100000,-0.100000)"
fill="#000000" stroke="none">
<path d="M2000 6744 c-547 -949 -995 -1731 -995 -1739 0 -8 448 -790 995
-1739 l995 -1726 2005 0 2005 0 995 1726 c547 949 995 1731 995 1739 0 8 -448
790 -995 1739 l-995 1726 -2005 0 -2005 0 -995 -1726z m4600 1667 c0 -22 -35
-31 -121 -31 -52 0 -59 2 -59 20 0 16 8 20 58 23 128 8 122 8 122 -12z m280
-1 c0 -19 -7 -20 -90 -20 -83 0 -90 1 -90 20 0 19 7 20 90 20 83 0 90 -1 90
-20z m-2250 -10 c0 -17 -7 -20 -44 -20 -24 0 -64 -3 -90 -6 -42 -6 -46 -5 -46
14 0 25 15 29 108 31 66 1 72 -1 72 -19z m280 0 c0 -19 -7 -20 -90 -20 -83 0
-90 1 -90 20 0 19 7 20 90 20 83 0 90 -1 90 -20z m280 0 c0 -19 -7 -20 -90
-20 -83 0 -90 1 -90 20 0 19 7 20 90 20 83 0 90 -1 90 -20z m280 0 c0 -19 -7
-20 -90 -20 -83 0 -90 1 -90 20 0 19 7 20 90 20 83 0 90 -1 90 -20z m280 0 c0
-19 -7 -20 -90 -20 -83 0 -90 1 -90 20 0 19 7 20 90 20 83 0 90 -1 90 -20z
m290 0 c0 -19 -7 -20 -90 -20 -83 0 -90 1 -90 20 0 19 7 20 90 20 83 0 90 -1
90 -20z m280 0 c0 -19 -7 -20 -90 -20 -83 0 -90 1 -90 20 0 19 7 20 90 20 83
0 90 -1 90 -20z m-3090 -10 c0 -19 -7 -20 -90 -20 -83 0 -90 1 -90 20 0 19 7
20 90 20 83 0 90 -1 90 -20z m280 0 c0 -19 -7 -20 -90 -20 -83 0 -90 1 -90 20
0 19 7 20 90 20 83 0 90 -1 90 -20z m280 0 c0 -19 -7 -20 -90 -20 -83 0 -90 1
-90 20 0 19 7 20 90 20 83 0 90 -1 90 -20z m280 0 c0 -19 -7 -20 -90 -20 -83
0 -90 1 -90 20 0 19 7 20 90 20 83 0 90 -1 90 -20z m280 0 c0 -19 -7 -20 -90
-20 -83 0 -90 1 -90 20 0 19 7 20 90 20 83 0 90 -1 90 -20z m2678 -76 c35 -60
41 -78 30 -85 -7 -5 -15 -9 -18 -9 -3 0 -25 35 -48 76 -35 60 -41 78 -30 85 7
5 15 9 18 9 3 0 25 -35 48 -76z m-4040 8 c9 -6 2 -27 -30 -85 -24 -42 -45 -77
-48 -77 -3 0 -11 4 -19 9 -11 7 -5 24 28 85 44 78 47 81 69 68z m3802 -68 c0
-17 -26 -19 -36 -3 -7 12 15 31 28 23 4 -3 8 -12 8 -20z m94 -5 c-8 -14 -34
-11 -34 4 0 8 3 17 7 20 9 9 34 -13 27 -24z m-2154 -5 c0 -14 -21 -19 -33 -7
-9 9 13 34 24 27 5 -3 9 -12 9 -20z m94 -5 c-8 -14 -34 -11 -34 4 0 8 3 17 7
20 9 9 34 -13 27 -24z m94 8 c2 -12 -3 -17 -17 -17 -12 0 -21 6 -21 13 0 31
32 34 38 4z m89 8 c7 -20 -2 -29 -21 -22 -9 4 -13 13 -10 22 8 19 23 19 31 0z
m98 -6 c0 -7 -8 -15 -17 -17 -18 -3 -25 18 -11 32 10 10 28 1 28 -15z m93 -2
c2 -10 -3 -17 -12 -17 -18 0 -29 16 -21 31 9 14 29 6 33 -14z m92 3 c0 -11 -7
-20 -15 -20 -8 0 -15 9 -15 20 0 11 7 20 15 20 8 0 15 -9 15 -20z m95 -1 c0
-7 -8 -15 -17 -17 -18 -3 -25 18 -11 32 10 10 28 1 28 -15z m93 -2 c2 -10 -3
-17 -12 -17 -18 0 -29 16 -21 31 9 14 29 6 33 -14z m92 3 c0 -11 -7 -20 -15
-20 -8 0 -15 9 -15 20 0 11 7 20 15 20 8 0 15 -9 15 -20z m96 9 c10 -17 -13
-36 -27 -22 -12 12 -4 33 11 33 5 0 12 -5 16 -11z m94 -3 c0 -20 -19 -31 -32
-18 -6 6 -7 15 -4 21 10 16 36 13 36 -3z m94 6 c8 -13 -11 -35 -23 -28 -16 10
-14 36 3 36 8 0 17 -4 20 -8z m91 -12 c0 -22 -29 -18 -33 3 -3 14 1 18 15 15
10 -2 18 -10 18 -18z m95 6 c0 -20 -19 -31 -32 -18 -6 6 -7 15 -4 21 10 16 36
13 36 -3z m95 -6 c0 -22 -29 -18 -33 3 -3 14 1 18 15 15 10 -2 18 -10 18 -18z
m93 3 c-2 -10 -10 -18 -18 -18 -8 0 -16 8 -18 18 -2 12 3 17 18 17 15 0 20 -5
18 -17z m92 4 c0 -8 -3 -17 -7 -20 -9 -9 -34 13 -27 24 8 14 34 11 34 -4z m96
2 c7 -12 -15 -31 -28 -23 -4 3 -8 12 -8 20 0 17 26 19 36 3z m94 -4 c0 -8 -9
-15 -20 -15 -11 0 -20 7 -20 15 0 8 9 15 20 15 11 0 20 -7 20 -15z m90 0 c0
-8 -7 -15 -15 -15 -8 0 -15 7 -15 15 0 8 7 15 15 15 8 0 15 -7 15 -15z m100 0
c0 -8 -9 -15 -20 -15 -11 0 -20 7 -20 15 0 8 9 15 20 15 11 0 20 -7 20 -15z
m-3562 -18 c2 -10 -3 -17 -12 -17 -18 0 -29 16 -21 31 9 14 29 6 33 -14z m95
9 c7 -16 -1 -26 -20 -26 -7 0 -13 9 -13 20 0 23 25 27 33 6z m93 3 c10 -17
-13 -36 -27 -22 -12 12 -4 33 11 33 5 0 12 -5 16 -11z m94 -9 c0 -11 -6 -20
-14 -20 -18 0 -29 16 -21 30 11 18 35 11 35 -10z m95 0 c0 -8 -8 -16 -17 -18
-13 -2 -18 3 -18 18 0 15 5 20 18 18 9 -2 17 -10 17 -18z m91 9 c10 -17 -13
-36 -27 -22 -12 12 -4 33 11 33 5 0 12 -5 16 -11z m94 -9 c0 -11 -6 -20 -14
-20 -18 0 -29 16 -21 30 11 18 35 11 35 -10z m95 0 c0 -22 -29 -18 -33 3 -3
14 1 18 15 15 10 -2 18 -10 18 -18z m95 6 c0 -8 -5 -18 -11 -22 -14 -8 -33 11
-25 25 10 16 36 13 36 -3z m88 -3 c-5 -25 -28 -28 -28 -4 0 12 6 21 16 21 9 0
14 -7 12 -17z m97 -3 c0 -22 -29 -18 -33 3 -3 14 1 18 15 15 10 -2 18 -10 18
-18z m95 6 c0 -8 -5 -18 -11 -22 -14 -8 -33 11 -25 25 10 16 36 13 36 -3z m88
-3 c-4 -22 -22 -20 -26 1 -2 10 3 16 13 16 10 0 15 -7 13 -17z m102 3 c0 -15
-24 -28 -34 -19 -13 14 -5 33 14 33 11 0 20 -6 20 -14z m90 -1 c0 -8 -9 -15
-20 -15 -20 0 -26 11 -13 23 12 13 33 7 33 -8z m93 0 c1 -5 -6 -11 -15 -13
-11 -2 -18 3 -18 13 0 17 30 18 33 0z m97 0 c0 -8 -9 -15 -20 -15 -11 0 -20 7
-20 15 0 8 9 15 20 15 11 0 20 -7 20 -15z m2290 -65 c0 -11 -7 -20 -15 -20 -8
0 -15 9 -15 20 0 11 7 20 15 20 8 0 15 -9 15 -20z m-3840 -14 c0 -8 -5 -18
-11 -22 -14 -8 -33 11 -25 25 10 16 36 13 36 -3z m4077 -92 c24 -42 40 -80 37
-85 -13 -22 -34 -4 -74 67 -35 62 -41 77 -29 85 8 5 16 9 19 9 3 0 24 -35 47
-76z m-189 23 c2 -10 -3 -17 -12 -17 -18 0 -29 16 -21 31 9 14 29 6 33 -14z
m712 -1542 l896 -1550 -118 -205 c-65 -113 -468 -810 -896 -1550 l-778 -1345
-1794 0 -1794 0 -896 1550 -896 1550 32 55 c17 30 415 719 884 1530 468 811
858 1485 866 1498 l14 22 1792 -2 1792 -3 896 -1550z m-4645 1525 c0 -8 -8
-16 -17 -18 -13 -2 -18 3 -18 18 0 15 5 20 18 18 9 -2 17 -10 17 -18z m-197 1
c11 -7 5 -25 -30 -85 -41 -72 -59 -88 -73 -66 -5 9 75 160 85 160 3 0 11 -4
18 -9z m4177 -62 c0 -7 -8 -15 -17 -17 -18 -3 -25 18 -11 32 10 10 28 1 28
-15z m-4029 -10 c10 -17 -13 -36 -27 -22 -12 12 -4 33 11 33 5 0 12 -5 16 -11z
m4074 -75 c0 -8 -7 -14 -15 -14 -15 0 -21 21 -9 33 10 9 24 -2 24 -19z m-4122
-17 c2 -10 -3 -17 -12 -17 -18 0 -29 16 -21 31 9 14 29 6 33 -14z m4360 -89
c36 -64 40 -74 27 -87 -8 -8 -16 -13 -18 -10 -21 26 -86 153 -81 160 13 22 33
4 72 -63z m-188 26 c0 -17 -26 -19 -36 -3 -7 12 15 31 28 23 4 -3 8 -12 8 -20z
m-4216 -25 c-8 -14 -34 -11 -34 4 0 8 3 17 7 20 9 9 34 -13 27 -24z m-220 -67
c-51 -92 -54 -96 -71 -79 -11 11 -7 25 29 89 37 65 46 75 61 66 17 -9 15 -14
-19 -76z m4486 13 c0 -8 -9 -15 -20 -15 -11 0 -20 7 -20 15 0 8 9 15 20 15 11
0 20 -7 20 -15z m-4310 -20 c0 -8 -9 -15 -20 -15 -11 0 -20 7 -20 15 0 8 9 15
20 15 11 0 20 -7 20 -15z m4353 -52 c9 -9 -13 -34 -24 -27 -14 8 -11 34 4 34
8 0 17 -3 20 -7z m-4403 -26 c0 -8 -3 -17 -7 -20 -9 -9 -34 13 -27 24 8 14 34
11 34 -4z m4638 -93 c35 -60 41 -78 30 -85 -7 -5 -15 -9 -18 -9 -3 0 -25 35
-48 76 -35 60 -41 78 -30 85 7 5 15 9 18 9 3 0 25 -35 48 -76z m-188 32 c0
-20 -19 -31 -32 -18 -6 6 -7 15 -4 21 10 16 36 13 36 -3z m-4497 -13 c9 -9
-13 -34 -24 -27 -14 8 -11 34 4 34 8 0 17 -3 20 -7z m-195 -11 c9 -6 2 -27
-30 -85 -24 -42 -45 -77 -48 -77 -3 0 -11 4 -19 9 -11 7 -5 24 30 85 45 79 46
81 67 68z m4737 -62 c0 -22 -29 -18 -33 3 -3 14 1 18 15 15 10 -2 18 -10 18
-18z m-4590 -20 c0 -22 -29 -18 -33 3 -3 14 1 18 15 15 10 -2 18 -10 18 -18z
m4635 -60 c0 -11 -7 -20 -15 -20 -8 0 -15 9 -15 20 0 11 7 20 15 20 8 0 15 -9
15 -20z m-4680 -20 c0 -21 -24 -28 -35 -10 -8 14 3 30 21 30 8 0 14 -9 14 -20z
m4917 -86 c24 -42 40 -80 37 -85 -13 -22 -33 -4 -72 63 -31 54 -38 75 -30 85
6 7 13 13 17 13 3 0 25 -35 48 -76z m-189 23 c2 -10 -3 -17 -12 -17 -18 0 -29
16 -21 31 9 14 29 6 33 -14z m-4773 -17 c0 -8 -8 -16 -17 -18 -13 -2 -18 3
-18 18 0 15 5 20 18 18 9 -2 17 -10 17 -18z m-197 -3 c8 -9 -1 -32 -31 -85
-39 -68 -58 -85 -72 -62 -6 9 75 160 86 160 4 0 11 -6 17 -13z m5017 -58 c0
-7 -8 -15 -17 -17 -18 -3 -25 18 -11 32 10 10 28 1 28 -15z m-4870 -20 c0 -7
-8 -15 -17 -17 -18 -3 -25 18 -11 32 10 10 28 1 28 -15z m4919 -70 c-8 -14
-34 -11 -34 4 0 8 3 17 7 20 9 9 34 -13 27 -24z m-4966 -12 c2 -10 -3 -17 -12
-17 -18 0 -29 16 -21 31 9 14 29 6 33 -14z m5200 -89 c36 -64 40 -74 27 -87
-8 -8 -16 -13 -18 -10 -21 26 -86 153 -81 160 13 22 33 4 72 -63z m-188 26 c0
-17 -26 -19 -36 -3 -7 12 15 31 28 23 4 -3 8 -12 8 -20z m-5056 -25 c-8 -14
-34 -11 -34 4 0 8 3 17 7 20 9 9 34 -13 27 -24z m-191 4 c7 -6 -55 -127 -78
-151 -10 -11 -14 -10 -24 1 -9 12 -3 29 30 86 38 66 55 81 72 64z m5297 -58
c0 -8 -9 -15 -20 -15 -11 0 -20 7 -20 15 0 8 9 15 20 15 11 0 20 -7 20 -15z
m-5150 -20 c0 -8 -9 -15 -20 -15 -11 0 -20 7 -20 15 0 8 9 15 20 15 11 0 20
-7 20 -15z m5193 -52 c9 -9 -13 -34 -24 -27 -14 8 -11 34 4 34 8 0 17 -3 20
-7z m-5243 -26 c0 -8 -3 -17 -7 -20 -9 -9 -34 13 -27 24 8 14 34 11 34 -4z
m5478 -93 c35 -60 41 -78 30 -85 -7 -5 -15 -9 -18 -9 -3 0 -25 35 -48 76 -35
60 -41 78 -30 85 7 5 15 9 18 9 3 0 25 -35 48 -76z m-188 32 c0 -20 -19 -31
-32 -18 -6 6 -7 15 -4 21 10 16 36 13 36 -3z m-5336 -14 c8 -13 -11 -35 -23
-28 -16 10 -14 36 3 36 8 0 17 -4 20 -8z m-196 -11 c11 -6 4 -25 -30 -84 -23
-42 -45 -76 -48 -77 -3 0 -11 4 -19 9 -11 7 -5 24 30 85 45 80 46 81 67 67z
m5577 -61 c0 -22 -29 -18 -33 3 -3 14 1 18 15 15 10 -2 18 -10 18 -18z m-5429
-11 c10 -17 -13 -36 -27 -22 -12 12 -4 33 11 33 5 0 12 -5 16 -11z m5477 -55
c9 -10 -4 -34 -19 -34 -8 0 -14 9 -14 20 0 19 19 27 33 14z m-5523 -34 c0 -11
-6 -20 -14 -20 -18 0 -29 16 -21 30 11 18 35 11 35 -10z m5757 -86 c24 -42 40
-80 37 -85 -13 -22 -33 -4 -72 63 -31 54 -38 75 -30 85 6 7 13 13 17 13 3 0
25 -35 48 -76z m-189 23 c2 -10 -3 -17 -12 -17 -18 0 -29 16 -21 31 9 14 29 6
33 -14z m-5613 -17 c0 -8 -8 -16 -17 -18 -13 -2 -18 3 -18 18 0 15 5 20 18 18
9 -2 17 -10 17 -18z m-197 -3 c8 -9 -1 -32 -31 -85 -39 -68 -58 -85 -72 -62
-6 9 75 160 86 160 4 0 11 -6 17 -13z m5857 -58 c0 -7 -8 -15 -17 -17 -18 -3
-25 18 -11 32 10 10 28 1 28 -15z m-5707 -22 c2 -12 -3 -17 -17 -17 -12 0 -21
6 -21 13 0 31 32 34 38 4z m5756 -68 c-8 -14 -34 -11 -34 4 0 8 3 17 7 20 9 9
34 -13 27 -24z m-5806 -12 c2 -10 -3 -17 -12 -17 -18 0 -29 16 -21 31 9 14 29
6 33 -14z m6042 -93 c35 -62 41 -77 29 -85 -8 -5 -16 -9 -19 -9 -10 0 -90 153
-84 161 13 22 34 4 74 -67z m-190 30 c0 -14 -21 -19 -33 -7 -9 9 13 34 24 27
5 -3 9 -12 9 -20z m-5896 -25 c-8 -14 -34 -11 -34 4 0 8 3 17 7 20 9 9 34 -13
27 -24z m-190 2 c5 -8 -61 -132 -82 -153 -5 -5 -13 -3 -20 4 -8 10 -1 31 29
86 37 66 59 86 73 63z m6136 -56 c0 -8 -9 -15 -20 -15 -11 0 -20 7 -20 15 0 8
9 15 20 15 11 0 20 -7 20 -15z m-5990 -20 c0 -8 -9 -15 -20 -15 -11 0 -20 7
-20 15 0 8 9 15 20 15 11 0 20 -7 20 -15z m6033 -52 c9 -9 -13 -34 -24 -27
-14 8 -11 34 4 34 8 0 17 -3 20 -7z m-6083 -26 c0 -8 -3 -17 -7 -20 -9 -9 -34
13 -27 24 8 14 34 11 34 -4z m6318 -93 c35 -60 41 -78 30 -85 -7 -5 -15 -9
-18 -9 -3 0 -25 35 -48 76 -35 60 -41 78 -30 85 7 5 15 9 18 9 3 0 25 -35 48
-76z m-188 32 c0 -20 -19 -31 -32 -18 -6 6 -7 15 -4 21 10 16 36 13 36 -3z
m-6176 -14 c8 -13 -11 -35 -23 -28 -16 10 -14 36 3 36 8 0 17 -4 20 -8z m-196
-11 c11 -7 5 -25 -30 -85 -23 -41 -45 -76 -48 -76 -3 0 -11 4 -19 9 -11 7 -5
24 30 85 45 80 46 81 67 67z m6417 -61 c0 -22 -29 -18 -33 3 -3 14 1 18 15 15
10 -2 18 -10 18 -18z m-6269 -11 c10 -17 -13 -36 -27 -22 -12 12 -4 33 11 33
5 0 12 -5 16 -11z m6319 -69 c0 -8 -8 -16 -17 -18 -13 -2 -18 3 -18 18 0 15 5
20 18 18 9 -2 17 -10 17 -18z m-6365 -20 c0 -11 -6 -20 -14 -20 -18 0 -29 16
-21 30 11 18 35 11 35 -10z m6634 -171 c-13 -22 -33 -4 -72 64 -38 65 -40 73
-25 84 14 11 22 3 60 -63 23 -42 40 -80 37 -85z m-224 111 c0 -11 -6 -20 -14
-20 -18 0 -29 16 -21 30 11 18 35 11 35 -10z m-6455 -20 c0 -8 -8 -16 -17 -18
-13 -2 -18 3 -18 18 0 15 5 20 18 18 9 -2 17 -10 17 -18z m-197 -3 c8 -9 -1
-32 -31 -85 -38 -67 -58 -85 -71 -63 -6 9 74 160 85 161 4 0 11 -6 17 -13z
m6697 -58 c0 -7 -8 -15 -17 -17 -18 -3 -25 18 -11 32 10 10 28 1 28 -15z
m-6547 -22 c2 -12 -3 -17 -17 -17 -12 0 -21 6 -21 13 0 31 32 34 38 4z m6596
-68 c-8 -14 -34 -11 -34 4 0 8 3 17 7 20 9 9 34 -13 27 -24z m-6644 -15 c0
-14 -21 -19 -33 -7 -9 9 13 34 24 27 5 -3 9 -12 9 -20z m6880 -90 c35 -62 41
-77 29 -85 -8 -5 -16 -9 -19 -9 -10 0 -90 153 -84 161 13 22 34 4 74 -67z
m-190 30 c0 -14 -21 -19 -33 -7 -9 9 13 34 24 27 5 -3 9 -12 9 -20z m-6736
-25 c-8 -14 -34 -11 -34 4 0 8 3 17 7 20 9 9 34 -13 27 -24z m-190 2 c6 -8
-74 -161 -84 -161 -3 0 -11 4 -19 9 -11 7 -5 24 28 85 39 70 61 90 75 67z
m6976 -56 c0 -8 -9 -15 -20 -15 -11 0 -20 7 -20 15 0 8 9 15 20 15 11 0 20 -7
20 -15z m-6830 -20 c0 -8 -9 -15 -20 -15 -11 0 -20 7 -20 15 0 8 9 15 20 15
11 0 20 -7 20 -15z m6873 -52 c9 -9 -13 -34 -24 -27 -14 8 -11 34 4 34 8 0 17
-3 20 -7z m-6923 -26 c0 -8 -3 -17 -7 -20 -9 -9 -34 13 -27 24 8 14 34 11 34
-4z m7158 -93 c35 -60 41 -78 30 -85 -7 -5 -15 -9 -18 -9 -3 0 -25 35 -48 76
-35 60 -41 78 -30 85 7 5 15 9 18 9 3 0 25 -35 48 -76z m-188 32 c0 -20 -19
-31 -32 -18 -6 6 -7 15 -4 21 10 16 36 13 36 -3z m-7015 -26 c0 -22 -29 -18
-33 3 -3 14 1 18 15 15 10 -2 18 -10 18 -18z m-197 1 c11 -7 5 -25 -30 -85
-23 -41 -45 -76 -48 -76 -3 0 -11 4 -18 9 -11 7 -5 25 30 85 23 41 45 76 48
76 3 0 11 -4 18 -9z m7258 -52 c10 -17 -13 -36 -27 -22 -12 12 -4 33 11 33 5
0 12 -5 16 -11z m-7110 -20 c10 -17 -13 -36 -27 -22 -12 12 -4 33 11 33 5 0
12 -5 16 -11z m7159 -69 c0 -8 -8 -16 -17 -18 -13 -2 -18 3 -18 18 0 15 5 20
18 18 9 -2 17 -10 17 -18z m-7205 -20 c0 -11 -6 -20 -14 -20 -18 0 -29 16 -21
30 11 18 35 11 35 -10z m7474 -171 c-13 -22 -33 -4 -72 64 -38 65 -40 73 -25
84 14 11 22 3 60 -63 23 -42 40 -80 37 -85z m-224 111 c0 -11 -6 -20 -14 -20
-18 0 -29 16 -21 30 11 18 35 11 35 -10z m-7295 -21 c0 -7 -8 -15 -17 -17 -18
-3 -25 18 -11 32 10 10 28 1 28 -15z m-224 -82 c-29 -52 -47 -73 -66 -79 -31
-8 -32 -11 25 90 39 69 47 79 63 70 16 -8 15 -15 -22 -81z m7567 20 c2 -12 -3
-17 -17 -17 -12 0 -21 6 -21 13 0 31 32 34 38 4z m-7390 -20 c2 -12 -3 -17
-17 -17 -12 0 -21 6 -21 13 0 31 32 34 38 4z m7436 -68 c-8 -14 -34 -11 -34 4
0 8 3 17 7 20 9 9 34 -13 27 -24z m-7474 -15 c0 -14 -21 -19 -33 -7 -9 9 13
34 24 27 5 -3 9 -12 9 -20z m7635 -24 c4 -6 -9 -38 -29 -73 -54 -94 -52 -93
-69 -78 -13 10 -9 22 27 86 39 71 57 87 71 65z m-185 -36 c0 -14 -21 -19 -33
-7 -9 9 13 34 24 27 5 -3 9 -12 9 -20z m-7400 -19 c0 -8 -9 -15 -20 -15 -11 0
-20 7 -20 15 0 8 9 15 20 15 11 0 20 -7 20 -15z m-144 -70 c36 -64 40 -76 27
-86 -17 -15 -14 -17 -69 79 -34 60 -37 82 -11 82 7 0 31 -34 53 -75z m7497 10
c1 -5 -6 -11 -15 -13 -11 -2 -18 3 -18 13 0 17 30 18 33 0z m-7310 -12 c9 -9
-13 -34 -24 -27 -14 8 -11 34 4 34 8 0 17 -3 20 -7z m7265 -70 c-2 -10 -10
-18 -18 -18 -8 0 -16 8 -18 18 -2 12 3 17 18 17 15 0 20 -5 18 -17z m-7218
-16 c0 -8 -3 -17 -7 -20 -9 -9 -34 13 -27 24 8 14 34 11 34 -4z m7360 -37 c0
-12 -82 -150 -89 -150 -3 0 -12 4 -19 9 -13 8 -7 21 64 138 13 21 44 23 44 3z
m-190 -24 c0 -8 -5 -18 -11 -22 -14 -8 -33 11 -25 25 10 16 36 13 36 -3z
m-7120 -20 c0 -8 -5 -18 -11 -22 -14 -8 -33 11 -25 25 10 16 36 13 36 -3z
m-139 -81 c30 -52 37 -70 27 -77 -22 -13 -25 -10 -65 60 -49 86 -48 83 -32 93
18 11 22 6 70 -76z m7213 27 c8 -13 -11 -35 -23 -28 -16 10 -14 36 3 36 8 0
17 -4 20 -8z m-7029 -32 c0 -22 -29 -18 -33 3 -3 14 1 18 15 15 10 -2 18 -10
18 -18z m6981 -51 c10 -17 -13 -36 -27 -22 -12 12 -4 33 11 33 5 0 12 -5 16
-11z m-6936 -29 c0 -11 -7 -20 -15 -20 -8 0 -15 9 -15 20 0 11 7 20 15 20 8 0
15 -9 15 -20z m7037 -113 c-38 -67 -46 -75 -60 -64 -16 11 -13 19 29 91 40 68
48 77 60 64 13 -13 9 -24 -29 -91z m-147 53 c0 -11 -6 -20 -14 -20 -18 0 -29
16 -21 30 11 18 35 11 35 -10z m-6842 -23 c2 -10 -3 -17 -12 -17 -18 0 -29 16
-21 31 9 14 29 6 33 -14z m-144 -64 c41 -70 44 -79 29 -90 -14 -11 -22 -2 -60
63 -36 60 -42 78 -32 90 6 8 13 14 15 14 2 0 24 -35 48 -77z m6936 7 c0 -11
-7 -20 -15 -20 -8 0 -15 9 -15 20 0 11 7 20 15 20 8 0 15 -9 15 -20z m-6745
-21 c0 -7 -8 -15 -17 -17 -18 -3 -25 18 -11 32 10 10 28 1 28 -15z m6700 -60
c0 -7 -8 -15 -17 -17 -18 -3 -25 18 -11 32 10 10 28 1 28 -15z m-6655 -25 c0
-8 -7 -14 -15 -14 -15 0 -21 21 -9 33 10 9 24 -2 24 -19z m6795 -24 c3 -5 -13
-42 -36 -82 -52 -90 -47 -85 -64 -67 -12 12 -8 24 28 87 39 68 58 85 72 62z
m-187 -33 c2 -10 -3 -17 -12 -17 -18 0 -29 16 -21 31 9 14 29 6 33 -14z
m-6558 -22 c0 -8 -9 -15 -20 -15 -11 0 -20 7 -20 15 0 8 9 15 20 15 11 0 20
-7 20 -15z m-143 -68 c35 -62 39 -74 27 -86 -16 -18 -11 -23 -63 66 -40 68
-45 93 -18 93 7 0 31 -33 54 -73z m6653 7 c0 -8 -7 -14 -15 -14 -15 0 -21 21
-9 33 10 9 24 -2 24 -19z m-6460 -19 c0 -8 -9 -15 -20 -15 -11 0 -20 7 -20 15
0 8 9 15 20 15 11 0 20 -7 20 -15z m6418 -62 c2 -8 -5 -13 -17 -13 -12 0 -21
6 -21 16 0 18 31 15 38 -3z m-6380 -20 c-4 -22 -22 -20 -26 1 -2 10 3 16 13
16 10 0 15 -7 13 -17z m6511 -22 c11 -7 5 -24 -30 -85 -24 -42 -46 -76 -49
-76 -3 0 -11 4 -18 9 -11 7 -5 25 30 85 23 41 45 76 48 76 3 0 11 -4 19 -9z
m-181 -38 c-2 -10 -10 -18 -18 -18 -8 0 -16 8 -18 18 -2 12 3 17 18 17 15 0
20 -5 18 -17z m-6278 -17 c0 -8 -5 -18 -11 -22 -14 -8 -33 11 -25 25 10 16 36
13 36 -3z m-142 -73 c32 -58 39 -79 30 -85 -21 -13 -23 -11 -68 68 -35 62 -41
77 -29 85 8 5 16 9 19 9 3 0 24 -35 48 -77z m6372 13 c0 -21 -21 -31 -30 -15
-5 7 -6 17 -4 21 9 14 34 9 34 -6z m-6185 -26 c0 -22 -29 -18 -33 3 -3 14 1
18 15 15 10 -2 18 -10 18 -18z m6140 -60 c0 -22 -29 -18 -33 3 -3 14 1 18 15
15 10 -2 18 -10 18 -18z m-6095 -20 c0 -11 -7 -20 -15 -20 -8 0 -15 9 -15 20
0 11 7 20 15 20 8 0 15 -9 15 -20z m6228 -23 c8 -9 -1 -32 -31 -85 -38 -67
-58 -85 -71 -63 -6 9 74 160 85 161 4 0 11 -6 17 -13z m-182 -28 c10 -17 -13
-36 -27 -22 -12 12 -4 33 11 33 5 0 12 -5 16 -11z m-5998 -32 c2 -10 -3 -17
-12 -17 -18 0 -29 16 -21 31 9 14 29 6 33 -14z m-134 -78 c20 -36 33 -69 29
-72 -17 -17 -34 -2 -72 64 -33 57 -39 74 -30 86 16 18 25 8 73 -78z m6086 21
c0 -11 -6 -20 -14 -20 -18 0 -29 16 -21 30 11 18 35 11 35 -10z m-5905 -21 c0
-7 -8 -15 -17 -17 -18 -3 -25 18 -11 32 10 10 28 1 28 -15z m5860 -60 c0 -7
-8 -15 -17 -17 -18 -3 -25 18 -11 32 10 10 28 1 28 -15z m-5811 -30 c-8 -14
-34 -11 -34 4 0 8 3 17 7 20 9 9 34 -13 27 -24z m5949 -16 c7 -6 -55 -127 -78
-151 -10 -11 -14 -10 -23 1 -10 11 -3 29 29 86 39 66 56 81 72 64z m-185 -36
c2 -12 -3 -17 -17 -17 -12 0 -21 6 -21 13 0 31 32 34 38 4z m-5718 -23 c0 -17
-26 -19 -36 -3 -7 12 15 31 28 23 4 -3 8 -12 8 -20z m-143 -66 c36 -63 40 -75
28 -87 -17 -18 -12 -23 -64 67 -23 40 -39 77 -36 82 14 23 33 6 72 -62z m5813
6 c0 -17 -26 -19 -36 -3 -7 12 15 31 28 23 4 -3 8 -12 8 -20z m-5620 -19 c0
-8 -9 -15 -20 -15 -11 0 -20 7 -20 15 0 8 9 15 20 15 11 0 20 -7 20 -15z
m5574 -66 c-8 -14 -34 -11 -34 4 0 8 3 17 7 20 9 9 34 -13 27 -24z m-5531 -6
c9 -9 -13 -34 -24 -27 -14 8 -11 34 4 34 8 0 17 -3 20 -7z m5665 -31 c9 -6 2
-27 -30 -85 -24 -42 -45 -77 -48 -77 -3 0 -11 4 -19 9 -12 8 -6 23 29 85 45
79 47 81 68 68z m-178 -37 c0 -8 -9 -15 -20 -15 -11 0 -20 7 -20 15 0 8 9 15
20 15 11 0 20 -7 20 -15z m-5440 -19 c0 -8 -5 -18 -11 -22 -14 -8 -33 11 -25
25 10 16 36 13 36 -3z m-142 -72 c35 -60 41 -78 30 -85 -7 -5 -15 -9 -18 -9
-3 0 -25 34 -49 76 -35 61 -41 78 -30 85 8 5 16 9 19 9 3 0 25 -35 48 -76z
m5532 12 c0 -8 -5 -18 -11 -22 -14 -8 -33 11 -25 25 10 16 36 13 36 -3z
m-5344 -17 c10 -17 -13 -36 -27 -22 -12 12 -4 33 11 33 5 0 12 -5 16 -11z
m5292 -66 c-4 -22 -22 -20 -26 1 -2 10 3 16 13 16 10 0 15 -7 13 -17z m-5243
-23 c0 -8 -8 -16 -17 -18 -13 -2 -18 3 -18 18 0 15 5 20 18 18 9 -2 17 -10 17
-18z m5364 -83 c-16 -29 -35 -62 -41 -74 -12 -24 -32 -30 -43 -13 -3 6 13 44
36 85 37 64 45 73 61 64 17 -9 16 -13 -13 -62z m-164 23 c0 -22 -29 -18 -33 3
-3 14 1 18 15 15 10 -2 18 -10 18 -18z m-5155 -20 c0 -11 -6 -20 -14 -20 -18
0 -29 16 -21 30 11 18 35 11 35 -10z m-106 -151 c-13 -22 -33 -4 -72 64 -38
65 -40 73 -25 84 14 11 22 3 60 -63 23 -42 40 -80 37 -85z m5212 100 c10 -17
-13 -36 -27 -22 -12 12 -4 33 11 33 5 0 12 -5 16 -11z m-5058 -32 c2 -10 -3
-17 -12 -17 -18 0 -29 16 -21 31 9 14 29 6 33 -14z m5012 -57 c0 -11 -7 -20
-15 -20 -8 0 -15 9 -15 20 0 11 7 20 15 20 8 0 15 -9 15 -20z m-4965 -21 c0
-7 -8 -15 -17 -17 -18 -3 -25 18 -11 32 10 10 28 1 28 -15z m5112 -37 c-54
-97 -91 -150 -103 -145 -21 8 -18 16 28 97 36 64 45 73 61 65 9 -6 16 -13 14
-17z m-192 -23 c0 -7 -8 -15 -17 -17 -18 -3 -25 18 -11 32 10 10 28 1 28 -15z
m-4875 -25 c0 -14 -21 -19 -33 -7 -9 9 13 34 24 27 5 -3 9 -12 9 -20z m-139
-70 c32 -59 39 -78 28 -84 -7 -5 -16 -7 -20 -4 -15 9 -89 146 -83 155 14 23
36 3 75 -67z m4967 13 c2 -12 -3 -17 -17 -17 -12 0 -21 6 -21 13 0 31 32 34
38 4z m-4778 -22 c0 -8 -9 -15 -20 -15 -11 0 -20 7 -20 15 0 8 9 15 20 15 11
0 20 -7 20 -15z m4730 -61 c0 -14 -21 -19 -33 -7 -9 9 13 34 24 27 5 -3 9 -12
9 -20z m-4684 -15 c7 -12 -15 -31 -28 -23 -4 3 -8 12 -8 20 0 17 26 19 36 3z
m4821 -27 c18 -11 -72 -163 -92 -156 -22 9 -19 18 26 95 42 71 46 74 66 61z
m-184 -37 c1 -5 -6 -11 -15 -13 -11 -2 -18 3 -18 13 0 17 30 18 33 0z m-4593
-18 c0 -8 -3 -17 -7 -20 -9 -9 -34 13 -27 24 8 14 34 11 34 -4z m-141 -73 c35
-61 41 -78 30 -85 -8 -5 -16 -9 -19 -9 -3 0 -25 35 -48 76 -35 60 -41 78 -30
85 21 14 22 13 67 -67z m4691 11 c0 -8 -9 -15 -20 -15 -11 0 -20 7 -20 15 0 8
9 15 20 15 11 0 20 -7 20 -15z m-4500 -19 c0 -8 -5 -18 -11 -22 -14 -8 -33 11
-25 25 10 16 36 13 36 -3z m4450 -60 c0 -8 -4 -17 -8 -20 -13 -8 -35 11 -28
23 10 16 36 14 36 -3z m-4405 -26 c0 -22 -29 -18 -33 3 -3 14 1 18 15 15 10
-2 18 -10 18 -18z m4545 -32 c0 -13 -69 -136 -81 -143 -5 -4 -15 -2 -23 2 -19
11 69 164 90 156 8 -3 14 -10 14 -15z m-186 -16 c8 -13 -11 -35 -23 -28 -16
10 -14 36 3 36 8 0 17 -4 20 -8z m-4314 -32 c0 -11 -7 -20 -15 -20 -8 0 -15 9
-15 20 0 11 7 20 15 20 8 0 15 -9 15 -20z m-105 -150 c-14 -23 -33 -6 -73 63
-37 65 -40 73 -25 84 15 11 22 4 60 -62 24 -42 41 -80 38 -85z m4370 90 c0
-22 -29 -18 -33 3 -3 14 1 18 15 15 10 -2 18 -10 18 -18z m-4217 -23 c2 -10
-3 -17 -12 -17 -18 0 -29 16 -21 31 9 14 29 6 33 -14z m4172 -57 c0 -21 -24
-28 -35 -10 -8 14 3 30 21 30 8 0 14 -9 14 -20z m-4125 -21 c0 -7 -8 -15 -17
-17 -18 -3 -25 18 -11 32 10 10 28 1 28 -15z m4228 -109 c-40 -67 -49 -77 -64
-69 -17 8 -14 16 28 89 40 67 49 77 64 69 17 -8 14 -16 -28 -89z m-153 50 c0
-11 -7 -20 -15 -20 -8 0 -15 9 -15 20 0 11 7 20 15 20 8 0 15 -9 15 -20z
m-4030 -26 c0 -8 -7 -14 -15 -14 -15 0 -21 21 -9 33 10 9 24 -2 24 -19z m-141
-65 c23 -39 41 -74 41 -79 0 -14 -28 -19 -38 -7 -24 32 -81 145 -75 150 17 17
34 2 72 -64z m4126 10 c0 -7 -8 -15 -17 -17 -18 -3 -25 18 -11 32 10 10 28 1
28 -15z m-3935 -25 c0 -17 -26 -19 -36 -3 -7 12 15 31 28 23 4 -3 8 -12 8 -20z
m3888 -57 c2 -10 -3 -17 -12 -17 -18 0 -29 16 -21 31 9 14 29 6 33 -14z
m-3838 -22 c0 -8 -9 -15 -20 -15 -11 0 -20 7 -20 15 0 8 9 15 20 15 11 0 20
-7 20 -15z m3976 -23 c13 -8 -70 -162 -87 -162 -23 0 -18 34 12 87 48 87 52
90 75 75z m-186 -38 c0 -8 -7 -14 -15 -14 -15 0 -21 21 -9 33 10 9 24 -2 24
-19z m-3732 -21 c-2 -10 -12 -18 -23 -18 -11 0 -21 8 -23 18 -3 13 3 17 23 17
20 0 26 -4 23 -17z m98 6 c7 -12 -15 -31 -28 -23 -4 3 -8 12 -8 20 0 17 26 19
36 3z m94 -3 c0 -8 -5 -18 -11 -22 -14 -8 -33 11 -25 25 10 16 36 13 36 -3z
m88 -3 c-4 -22 -22 -20 -26 1 -2 10 3 16 13 16 10 0 15 -7 13 -17z m97 -3 c0
-22 -29 -18 -33 3 -3 14 1 18 15 15 10 -2 18 -10 18 -18z m95 6 c0 -8 -4 -17
-8 -20 -13 -8 -35 11 -28 23 10 16 36 14 36 -3z m93 7 c9 -9 -13 -34 -24 -27
-14 8 -11 34 4 34 8 0 17 -3 20 -7z m95 -10 c-2 -10 -10 -18 -18 -18 -8 0 -16
8 -18 18 -2 12 3 17 18 17 15 0 20 -5 18 -17z m92 4 c0 -8 -3 -17 -7 -20 -9
-9 -34 13 -27 24 8 14 34 11 34 -4z m93 6 c9 -9 -13 -34 -24 -27 -14 8 -11 34
4 34 8 0 17 -3 20 -7z m95 -10 c-2 -10 -10 -18 -18 -18 -8 0 -16 8 -18 18 -2
12 3 17 18 17 15 0 20 -5 18 -17z m92 4 c0 -8 -3 -17 -7 -20 -9 -9 -34 13 -27
24 8 14 34 11 34 -4z m96 2 c7 -12 -15 -31 -28 -23 -4 3 -8 12 -8 20 0 17 26
19 36 3z m92 -6 c-2 -10 -10 -18 -18 -18 -8 0 -16 8 -18 18 -2 12 3 17 18 17
15 0 20 -5 18 -17z m92 4 c0 -8 -3 -17 -7 -20 -9 -9 -34 13 -27 24 8 14 34 11
34 -4z m96 2 c7 -12 -15 -31 -28 -23 -4 3 -8 12 -8 20 0 17 26 19 36 3z m94
-3 c0 -8 -4 -17 -8 -20 -13 -8 -35 11 -28 23 10 16 36 14 36 -3z m88 -3 c-4
-22 -22 -20 -26 1 -2 10 3 16 13 16 10 0 15 -7 13 -17z m100 0 c-2 -10 -10
-18 -18 -18 -8 0 -16 8 -18 18 -2 12 3 17 18 17 15 0 20 -5 18 -17z m92 3 c0
-8 -4 -17 -8 -20 -13 -8 -35 11 -28 23 10 16 36 14 36 -3z m93 7 c9 -9 -13
-34 -24 -27 -14 8 -11 34 4 34 8 0 17 -3 20 -7z m95 -10 c-2 -10 -10 -18 -18
-18 -8 0 -16 8 -18 18 -2 12 3 17 18 17 15 0 20 -5 18 -17z m92 4 c0 -8 -3
-17 -7 -20 -9 -9 -34 13 -27 24 8 14 34 11 34 -4z m93 6 c9 -9 -13 -34 -24
-27 -14 8 -11 34 4 34 8 0 17 -3 20 -7z m95 -10 c-2 -10 -10 -18 -18 -18 -8 0
-16 8 -18 18 -2 12 3 17 18 17 15 0 20 -5 18 -17z m92 4 c0 -8 -3 -17 -7 -20
-9 -9 -34 13 -27 24 8 14 34 11 34 -4z m96 2 c7 -12 -15 -31 -28 -23 -4 3 -8
12 -8 20 0 17 26 19 36 3z m94 -3 c0 -8 -5 -18 -11 -22 -14 -8 -33 11 -25 25
10 16 36 13 36 -3z m88 -3 c-4 -22 -22 -20 -26 1 -2 10 3 16 13 16 10 0 15 -7
13 -17z m97 -3 c0 -22 -29 -18 -33 3 -3 14 1 18 15 15 10 -2 18 -10 18 -18z
m95 6 c0 -8 -4 -17 -8 -20 -13 -8 -35 11 -28 23 10 16 36 14 36 -3z m93 7 c9
-9 -13 -34 -24 -27 -14 8 -11 34 4 34 8 0 17 -3 20 -7z m95 -10 c-2 -10 -10
-18 -18 -18 -8 0 -16 8 -18 18 -2 12 3 17 18 17 15 0 20 -5 18 -17z m92 3 c0
-8 -4 -17 -8 -20 -13 -8 -35 11 -28 23 10 16 36 14 36 -3z m93 7 c9 -9 -13
-34 -24 -27 -14 8 -11 34 4 34 8 0 17 -3 20 -7z m95 -10 c-2 -10 -10 -18 -18
-18 -8 0 -16 8 -18 18 -2 12 3 17 18 17 15 0 20 -5 18 -17z m92 4 c0 -8 -3
-17 -7 -20 -9 -9 -34 13 -27 24 8 14 34 11 34 -4z m96 2 c7 -12 -15 -31 -28
-23 -4 3 -8 12 -8 20 0 17 26 19 36 3z m92 -6 c-2 -10 -10 -18 -18 -18 -8 0
-16 8 -18 18 -2 12 3 17 18 17 15 0 20 -5 18 -17z m92 4 c0 -8 -3 -17 -7 -20
-9 -9 -34 13 -27 24 8 14 34 11 34 -4z m-3811 -72 c40 -70 45 -95 18 -95 -7 0
-31 35 -55 77 -32 58 -39 79 -30 85 21 13 23 11 67 -67z m271 -95 c0 -19 -7
-20 -90 -20 -83 0 -90 1 -90 20 0 19 7 20 90 20 83 0 90 -1 90 -20z m280 0 c0
-19 -7 -20 -90 -20 -83 0 -90 1 -90 20 0 19 7 20 90 20 83 0 90 -1 90 -20z
m280 0 c0 -19 -7 -20 -90 -20 -83 0 -90 1 -90 20 0 19 7 20 90 20 83 0 90 -1
90 -20z m280 0 c0 -19 -7 -20 -90 -20 -83 0 -90 1 -90 20 0 19 7 20 90 20 83
0 90 -1 90 -20z m280 0 c0 -19 -7 -20 -90 -20 -83 0 -90 1 -90 20 0 19 7 20
90 20 83 0 90 -1 90 -20z m280 0 c0 -19 -7 -20 -90 -20 -83 0 -90 1 -90 20 0
19 7 20 90 20 83 0 90 -1 90 -20z m280 0 c0 -19 -7 -20 -90 -20 -83 0 -90 1
-90 20 0 19 7 20 90 20 83 0 90 -1 90 -20z m280 0 c0 -19 -7 -20 -90 -20 -83
0 -90 1 -90 20 0 19 7 20 90 20 83 0 90 -1 90 -20z m280 0 c0 -19 -7 -20 -90
-20 -83 0 -90 1 -90 20 0 19 7 20 90 20 83 0 90 -1 90 -20z m280 0 c0 -19 -7
-20 -90 -20 -83 0 -90 1 -90 20 0 19 7 20 90 20 83 0 90 -1 90 -20z m280 0 c0
-19 -7 -20 -90 -20 -83 0 -90 1 -90 20 0 19 7 20 90 20 83 0 90 -1 90 -20z
m280 0 c0 -19 -7 -20 -90 -20 -83 0 -90 1 -90 20 0 19 7 20 90 20 83 0 90 -1
90 -20z m290 0 c0 -19 -7 -20 -90 -20 -83 0 -90 1 -90 20 0 19 7 20 90 20 83
0 90 -1 90 -20z m280 0 c0 -19 -7 -20 -90 -20 -83 0 -90 1 -90 20 0 19 7 20
90 20 83 0 90 -1 90 -20z"/>
<path d="M2375 6524 c-478 -828 -870 -1511 -870 -1519 0 -8 392 -691 870
-1519 l870 -1506 1755 0 1755 0 870 1506 c479 828 870 1511 870 1519 0 8 -391
691 -870 1519 l-870 1506 -1755 0 -1755 0 -870 -1506z m2651 1434 c9 -18 18
-34 19 -36 1 -1 67 -7 146 -13 609 -42 1125 -240 1619 -619 122 -94 386 -358
480 -480 378 -492 580 -1019 619 -1618 5 -73 11 -135 13 -137 2 -1 18 -10 36
-19 17 -9 32 -21 32 -26 0 -5 -15 -17 -32 -26 -18 -9 -34 -18 -36 -19 -1 -1
-7 -65 -12 -142 -41 -606 -241 -1129 -620 -1623 -94 -122 -358 -386 -480 -480
-291 -223 -559 -367 -885 -476 -240 -79 -474 -126 -690 -139 -181 -11 -183
-11 -205 -56 -11 -21 -25 -39 -30 -39 -5 0 -19 18 -30 40 -23 45 -26 46 -188
55 -377 20 -826 153 -1177 347 -251 140 -445 286 -656 497 -210 210 -352 397
-495 653 -196 349 -331 809 -351 1198 -3 63 -10 125 -14 137 -5 12 -26 31 -49
43 -22 11 -40 25 -40 30 0 5 18 19 40 30 21 11 43 28 48 38 5 9 12 69 15 132
20 389 152 838 349 1195 140 251 287 445 497 656 208 207 402 355 647 492 346
193 790 327 1169 352 190 12 190 12 208 51 21 42 32 43 53 2z"/>
<path d="M4755 7873 c-22 -2 -101 -12 -175 -23 -1332 -196 -2359 -1312 -2446
-2658 l-7 -104 34 21 c41 25 46 26 52 4 3 -10 5 11 6 47 3 192 58 480 136 715
137 416 341 751 655 1078 41 44 92 92 112 108 l37 30 74 -77 73 -77 -156 -156
c-378 -377 -604 -793 -705 -1296 -34 -169 -45 -289 -45 -480 0 -315 47 -579
157 -876 43 -114 163 -361 179 -366 8 -3 213 113 341 193 l21 13 -39 78 c-146
289 -222 620 -222 963 0 568 206 1083 600 1501 200 211 505 413 793 525 134
51 345 103 503 122 l137 17 0 179 0 179 -82 -7 c-510 -43 -1011 -233 -1400
-533 -33 -25 -60 -43 -61 -41 -1 2 -36 39 -77 81 l-75 78 25 20 c303 245 576
398 912 511 227 75 548 138 710 138 50 0 50 0 102 88 7 12 -64 14 -169 5z"/>
<path d="M5093 7839 c14 -24 32 -47 39 -51 7 -3 72 -11 143 -17 424 -37 888
-202 1250 -444 150 -100 360 -268 360 -288 0 -8 -152 -149 -161 -149 -3 0 -42
30 -87 67 -190 155 -472 315 -717 408 -209 79 -450 133 -716 160 l-61 7 -8
-172 c-4 -95 -3 -175 1 -179 5 -4 68 -15 141 -24 874 -110 1600 -749 1818
-1600 49 -194 68 -342 68 -547 0 -343 -72 -656 -220 -958 -25 -51 -44 -94 -42
-96 46 -31 323 -189 335 -190 13 -1 36 36 83 130 133 264 219 555 250 846 14
125 14 401 0 526 -60 554 -302 1065 -700 1477 l-119 123 82 76 83 75 43 -42
c160 -155 354 -413 475 -632 195 -353 331 -833 338 -1190 1 -38 4 -60 6 -47 5
28 7 28 61 -4 l45 -27 -7 114 c-64 1072 -748 2036 -1746 2462 -294 125 -635
206 -944 223 l-119 7 26 -44z"/>
<path d="M4710 6960 c-725 -112 -1327 -608 -1569 -1294 -35 -99 -72 -243 -93
-356 -8 -48 -13 -156 -13 -300 0 -144 5 -252 13 -300 21 -113 58 -257 93 -356
39 -110 120 -286 130 -282 21 8 769 454 769 459 0 3 -30 61 -66 128 -36 67
-64 124 -63 126 4 3 922 53 927 49 6 -4 -503 -792 -510 -788 -4 3 -38 58 -75
124 -50 87 -72 118 -83 114 -12 -4 -747 -430 -758 -439 -8 -7 128 -162 219
-250 166 -161 305 -259 504 -355 680 -330 1470 -250 2070 209 110 83 375 355
375 384 0 5 -744 442 -770 451 -11 4 -33 -26 -83 -114 -37 -66 -71 -121 -75
-124 -7 -4 -516 784 -510 788 5 4 923 -46 927 -49 1 -2 -27 -59 -63 -126 -36
-67 -66 -125 -66 -128 0 -5 537 -326 742 -444 l48 -27 39 77 c76 154 148 378
183 573 8 48 13 157 13 300 0 240 -6 296 -55 486 -93 363 -269 665 -541 930
-305 296 -683 480 -1107 538 -62 9 -117 16 -122 16 -6 0 -10 -192 -10 -520 l0
-520 146 0 c80 0 144 -4 142 -8 -20 -49 -422 -822 -428 -822 -7 0 -420 810
-420 824 0 3 63 6 140 6 104 0 142 3 144 13 3 6 7 240 10 520 l6 507 -22 -1
c-13 0 -75 -9 -138 -19z"/>
<path d="M7835 4915 c-48 -30 -52 -30 -58 -7 -3 9 -5 -15 -6 -53 -5 -342 -141
-828 -324 -1165 -434 -799 -1216 -1334 -2108 -1445 -68 -8 -153 -16 -189 -16
-36 -1 -57 -3 -47 -6 22 -6 21 -11 -3 -51 -11 -18 -20 -35 -20 -39 0 -10 219
6 355 27 627 96 1188 386 1630 841 431 443 700 989 789 1599 16 104 33 340 25
340 -2 0 -22 -12 -44 -25z"/>
<path d="M2133 4824 c36 -578 254 -1145 619 -1607 104 -131 334 -361 465 -465
396 -313 863 -516 1356 -591 139 -21 347 -38 347 -28 0 3 -10 22 -22 42 -17
31 -19 38 -7 46 9 6 -9 9 -51 9 -258 0 -690 104 -980 235 -625 281 -1123 780
-1405 1405 -131 289 -235 722 -235 980 0 42 -3 60 -9 51 -8 -12 -15 -10 -47 8
l-37 22 6 -107z"/>
<path d="M3180 3711 c-25 -16 -102 -62 -172 -103 l-128 -74 67 -85 c449 -567
1170 -934 1901 -966 l142 -6 0 -129 c0 -79 4 -128 10 -128 6 0 10 49 10 128
l0 129 133 6 c725 35 1444 402 1890 966 l67 85 -118 69 c-64 38 -143 83 -174
100 l-57 32 -18 -25 c-116 -164 -328 -365 -527 -499 -730 -492 -1698 -488
-2427 10 -181 124 -360 291 -482 452 -29 37 -56 67 -62 66 -5 0 -30 -13 -55
-28z"/>
</g>
</svg>
